<svg id="_ëîé_1" data-name="‘ëîé_1" xmlns="http://www.w3.org/2000/svg" xmlns:xlink="http://www.w3.org/1999/xlink" viewBox="0 0 2706.01 1894.21"><defs><style>.cls-1{fill:#ede0c4;}.cls-2{fill:#ffafb1;}.cls-10,.cls-11,.cls-13,.cls-14,.cls-16,.cls-18,.cls-19,.cls-20,.cls-21,.cls-3,.cls-4,.cls-6,.cls-8{fill:none;stroke-miterlimit:10;}.cls-10,.cls-13,.cls-16,.cls-19,.cls-20,.cls-3,.cls-4{stroke:#56303c;}.cls-10,.cls-11,.cls-13,.cls-14,.cls-16,.cls-18,.cls-19,.cls-20,.cls-21,.cls-3,.cls-4,.cls-8{stroke-linecap:round;}.cls-3{stroke-width:10.28px;}.cls-4{stroke-width:10.82px;}.cls-5{clip-path:url(#clip-path);}.cls-14,.cls-18,.cls-21,.cls-6{stroke:#d9af00;}.cls-19,.cls-21,.cls-6{stroke-width:4.33px;}.cls-7{fill:#56303c;}.cls-8{stroke:#ffafb1;}.cls-11,.cls-14,.cls-16,.cls-8{stroke-width:5.41px;}.cls-9{fill:#a0d6ff;}.cls-10{stroke-width:8.12px;}.cls-11{stroke:#fff;}.cls-12{fill:#d9af00;}.cls-13{stroke-width:6.49px;}.cls-15{fill:#b4702f;}.cls-17{fill:#fff;}.cls-18{stroke-width:4.85px;}.cls-20{stroke-width:5.05px;}</style><clipPath id="clip-path"><path class="cls-1" d="M1839.28,1023.08c-21.22,65.85-55,123.19-96.56,168.85q-9.43,10.38-19.39,19.93L1671.16,1254l-325.08,262.63L1021,1254l-52.23-42.2q-9.93-9.54-19.36-19.9c-41.55-45.66-75.34-103-96.56-168.85-65.56-203.5,13.84-411.18,177.34-463.86,109.61-35.31,229.18,19.87,315.85,113.56,86.68-93.69,206.25-148.87,315.86-113.56C1825.44,611.9,1904.84,819.58,1839.28,1023.08Z"/></clipPath></defs><g id="BIG_HANDS" data-name="BIG HANDS"><path class="cls-2" d="M470.39,442.45c-13.63-58.88,81.1-131.1,211.57-161.3,91.89-21.27,177-16,224.07,9.49a57,57,0,0,1,28.59,38.78l51,249.08,396.08,316.7-295.74,406.46L853.19,1023.09l62.34,195.42A127.54,127.54,0,0,1,900.06,1326l-9.82,14.91a17,17,0,0,1-28.8-.64L648.05,982.48A281,281,0,0,1,611.43,797L626.8,694Z"/><path class="cls-3" d="M826.13,1275.33c14.48-6,31.08-4.11,42.72,6.41,16.55,15,16.8,41.67.55,59.66"/><path class="cls-2" d="M2064.79,694l22.41,45.71a310.75,310.75,0,0,1,20.12,221l-148.14,526.47a19.77,19.77,0,0,1-27.76,12.38l-15.58-7.67a97.05,97.05,0,0,1-54.19-86.06l-1.24-119.26-504.07,342a40.26,40.26,0,0,1-58.32-51.92l31.26-60-101.54,82.69a46.1,46.1,0,0,1-66.28-63l57.84-78.88-58.79,55.6a42.24,42.24,0,0,1-64-54.44l57.33-78.42-55.42,31.93a39.3,39.3,0,0,1-50.06-57.9l461.72-635.48A296,296,0,0,1,1735.46,597l27.29-224.37c23.65-49,143.78-71,250.21-47.35,122.13,27.18,205.11,116.88,188,171.79l-.18.56Z"/><polyline class="cls-4" points="1860.4 1286.54 1875.17 1084.81 1839.28 1023.08"/><path class="cls-4" d="M2064.79,694s-19.8-23.39-53.13-42.65"/><path class="cls-4" d="M1953.24,1493.21c-16.72-7.76-28.15-23.53-28.15-41.73,0-25.88,23.15-46.86,51.71-46.86"/></g><g id="HEART"><path class="cls-1" d="M1839.28,1023.08c-21.22,65.85-55,123.19-96.56,168.85q-9.43,10.38-19.39,19.93L1671.16,1254l-325.08,262.63L1021,1254l-52.23-42.2q-9.93-9.54-19.36-19.9c-41.55-45.66-75.34-103-96.56-168.85-65.56-203.5,13.84-411.18,177.34-463.86,109.61-35.31,229.18,19.87,315.85,113.56,86.68-93.69,206.25-148.87,315.86-113.56C1825.44,611.9,1904.84,819.58,1839.28,1023.08Z"/><g class="cls-5"><line class="cls-6" x1="1050.23" y1="1519.63" x2="1050.23" y2="552.19"/><line class="cls-6" x1="1006.06" y1="1519.63" x2="1006.06" y2="567.53"/><line class="cls-6" x1="1095.74" y1="1519.63" x2="1095.74" y2="552.19"/><line class="cls-6" x1="1141.26" y1="1519.63" x2="1141.26" y2="552.19"/><line class="cls-6" x1="1186.77" y1="1519.63" x2="1186.77" y2="567.53"/><line class="cls-6" x1="1232.28" y1="1519.63" x2="1232.28" y2="582.87"/><line class="cls-6" x1="1277.79" y1="1519.63" x2="1277.79" y2="613.56"/><line class="cls-6" x1="1323.3" y1="1519.63" x2="1323.3" y2="613.56"/><line class="cls-6" x1="870.16" y1="1519.63" x2="870.16" y2="613.56"/><line class="cls-6" x1="915.67" y1="1519.63" x2="915.67" y2="613.56"/><line class="cls-6" x1="961.18" y1="1519.63" x2="961.18" y2="582.87"/><line class="cls-6" x1="1367.52" y1="1008.52" x2="823.93" y2="1008.52"/><line class="cls-6" x1="1367.52" y1="963.01" x2="823.93" y2="963.01"/><line class="cls-6" x1="1367.52" y1="917.49" x2="823.93" y2="917.49"/><line class="cls-6" x1="1367.52" y1="871.98" x2="823.93" y2="871.98"/><line class="cls-6" x1="1367.52" y1="826.47" x2="823.93" y2="826.47"/><line class="cls-6" x1="1367.52" y1="780.96" x2="823.93" y2="780.96"/><line class="cls-6" x1="1367.52" y1="735.45" x2="823.93" y2="735.45"/><line class="cls-6" x1="1367.52" y1="689.94" x2="826.49" y2="689.94"/><line class="cls-6" x1="1367.52" y1="644.42" x2="823.93" y2="644.42"/><line class="cls-6" x1="1367.52" y1="1372.88" x2="823.93" y2="1372.88"/><line class="cls-6" x1="1367.52" y1="1418.87" x2="823.93" y2="1418.87"/><line class="cls-6" x1="1367.52" y1="1327.37" x2="823.93" y2="1327.37"/><line class="cls-6" x1="1367.52" y1="1281.86" x2="823.93" y2="1281.86"/><line class="cls-6" x1="1367.52" y1="1236.35" x2="823.93" y2="1236.35"/><line class="cls-6" x1="1367.52" y1="1190.84" x2="823.93" y2="1190.84"/><line class="cls-6" x1="1367.52" y1="1145.32" x2="823.93" y2="1145.32"/><line class="cls-6" x1="1367.52" y1="1099.81" x2="823.93" y2="1099.81"/><line class="cls-6" x1="1367.52" y1="1054.3" x2="826.49" y2="1054.3"/><line class="cls-6" x1="1550.95" y1="1519.63" x2="1550.95" y2="552.19"/><line class="cls-6" x1="1506.78" y1="1519.63" x2="1506.78" y2="567.53"/><line class="cls-6" x1="1596.46" y1="1519.63" x2="1596.46" y2="552.19"/><line class="cls-6" x1="1641.97" y1="1519.63" x2="1641.97" y2="552.19"/><line class="cls-6" x1="1687.49" y1="1519.63" x2="1687.49" y2="567.53"/><line class="cls-6" x1="1733" y1="1519.63" x2="1733" y2="585.94"/><line class="cls-6" x1="1778.51" y1="1519.63" x2="1778.51" y2="613.56"/><line class="cls-6" x1="1824.02" y1="1519.63" x2="1824.02" y2="613.56"/><line class="cls-6" x1="1370.88" y1="1519.63" x2="1370.88" y2="613.56"/><line class="cls-6" x1="1416.39" y1="1519.63" x2="1416.39" y2="613.56"/><line class="cls-6" x1="1461.9" y1="1519.63" x2="1461.9" y2="585.94"/><line class="cls-6" x1="1868.24" y1="1008.52" x2="1324.65" y2="1008.52"/><line class="cls-6" x1="1868.24" y1="963.01" x2="1324.65" y2="963.01"/><line class="cls-6" x1="1868.24" y1="917.49" x2="1324.65" y2="917.49"/><line class="cls-6" x1="1868.24" y1="871.98" x2="1324.65" y2="871.98"/><line class="cls-6" x1="1868.24" y1="826.47" x2="1324.65" y2="826.47"/><line class="cls-6" x1="1868.24" y1="780.96" x2="1324.65" y2="780.96"/><line class="cls-6" x1="1868.24" y1="735.45" x2="1324.65" y2="735.45"/><line class="cls-6" x1="1868.24" y1="689.94" x2="1327.21" y2="689.94"/><line class="cls-6" x1="1868.24" y1="644.42" x2="1324.65" y2="644.42"/><line class="cls-6" x1="1733.24" y1="596.87" x2="959.53" y2="596.87"/><line class="cls-6" x1="1868.24" y1="1372.88" x2="1324.65" y2="1372.88"/><line class="cls-6" x1="1868.24" y1="1418.87" x2="1324.65" y2="1418.87"/><line class="cls-6" x1="1745.51" y1="1463.36" x2="1201.92" y2="1463.36"/><line class="cls-6" x1="1868.24" y1="1327.37" x2="1324.65" y2="1327.37"/><line class="cls-6" x1="1868.24" y1="1281.86" x2="1324.65" y2="1281.86"/><line class="cls-6" x1="1868.24" y1="1236.35" x2="1324.65" y2="1236.35"/><line class="cls-6" x1="1868.24" y1="1190.84" x2="1324.65" y2="1190.84"/><line class="cls-6" x1="1868.24" y1="1145.32" x2="1324.65" y2="1145.32"/><line class="cls-6" x1="1868.24" y1="1099.81" x2="1324.65" y2="1099.81"/><line class="cls-6" x1="1868.24" y1="1054.3" x2="1327.21" y2="1054.3"/></g></g><g id="WOMAN"><g id="LEGS"><path class="cls-7" d="M1839.28,1023.09c-21.22,65.84-55,123.18-96.56,168.84q-9.43,10.38-19.39,19.93l-39.22,31.68H1402.23c-97.09,0-146.79-116.41-79.63-186.53l185.47-193.69,352.62-1.53C1865.12,916.2,1856.79,968.7,1839.28,1023.09Z"/><path class="cls-8" d="M1582.74,1132.57h128.12A130.32,130.32,0,0,0,1831,1052.78l6.62-15.73"/><path class="cls-9" d="M1802.62,1122.22,1749,1222.47l33.35,15.75a92.4,92.4,0,0,1,43.23,45.86h0a3.31,3.31,0,0,0,6.3-1.9Z"/><line class="cls-10" x1="1802.62" y1="1122.22" x2="1831.87" y2="1282.18"/><path class="cls-11" d="M1762.64,1254.56h0a11,11,0,0,1-11-11h0a11,11,0,0,1,11-11h8a3,3,0,0,1,3.05,3v8A11,11,0,0,1,1762.64,1254.56Z"/><line class="cls-11" x1="1772.21" y1="1216.97" x2="1773.65" y2="1235.58"/></g><g id="BODY"><path class="cls-12" d="M1858.33,823.19c16.84,93-29.54,156.41-102.08,189.88L1513.62,1125l-27-72.15,217.17-162.48-80.62,25.32a97.23,97.23,0,0,1-116.56-50.26l-50-102.85a17.28,17.28,0,0,0-26.45-5.12l-53,47c-3-21.29-7.38-42.57-12.37-64a201.15,201.15,0,0,0-28.37-78.26c86.68-93.54,216-138.31,325.5-103,100.81,32.48,171.17,113.13,193.78,226.13Z"/><path class="cls-13" d="M1339.31,660.92s24.1,32.65,28.27,78.06"/><line class="cls-13" x1="1726.62" y1="803.31" x2="1702.27" y2="887.33"/></g><g id="HEAD"><g id="HAIR"><path class="cls-7" d="M1522.84,623c0-47.49,36.93-74.52,88.16-74.52s77.41,47.85,77.41,89.86l15.34,252L1598.32,924.8l19-252.19Z"/><line class="cls-14" x1="1625.23" y1="656.23" x2="1625.23" y2="640.34"/></g><g id="HEAD-2" data-name="HEAD"><path class="cls-15" d="M1633.79,651.45l-8.56,4.78s-56.68,17.83-87.41-52.41l-15,20.54,3.77,44.33c2.77,32.6,39.1,50.67,66.76,33.2l38.36-24.22a23.75,23.75,0,0,0,11-21.24h0A6,6,0,0,0,1633.79,651.45Z"/><path class="cls-16" d="M1524.58,644.85l10.83,5.17a23.39,23.39,0,0,1,11.87,18.9l1.39,21.75"/><path class="cls-16" d="M1586.39,674.81a13.46,13.46,0,0,1-8.53,2.71c-4,0-7.45-1.39-9.31-3.46"/><path class="cls-16" d="M1537.89,667.11a8.2,8.2,0,0,1-6.22,2.71,8.09,8.09,0,0,1-6.78-3.45"/></g></g></g><g id="CHILD"><g id="BODY-2" data-name="BODY"><path class="cls-9" d="M1667.85,935.36l-137.75,89.11L1505.25,1176l88.93,57.56a49,49,0,0,1,4.17,79.25l-167.48,135.3a5.19,5.19,0,0,1-8.16-5.74l25.8-74.13a15.71,15.71,0,0,1,19.31-9.9l12.43,3.7,49.85-78.29-85.95-20.12-114,195.37,19.94,38.89a15.15,15.15,0,0,1-4,18.72l-63.9-51.62a28.89,28.89,0,0,1-9-32.31l154.42-425.56a72.15,72.15,0,0,1,47.59-44.65l209.08-66.78C1682.49,896.33,1660.52,904.64,1667.85,935.36Z"/><polyline class="cls-11" points="1543.19 1286.54 1530.11 1283.77 1535.59 1275.87"/><path class="cls-11" d="M1444.14,1263.65l-4.68-1.59a35.52,35.52,0,0,1-23.38-26.62"/><path class="cls-17" d="M1440.14,962.62l-10,38.49,1.39-2.68A68.59,68.59,0,0,1,1470.35,965L1520.74,948l-5.53-7.62a11.12,11.12,0,0,0-12.37-4.06l-54.06,17.23A13,13,0,0,0,1440.14,962.62Z"/><line class="cls-13" x1="1451.56" y1="1357.21" x2="1421.18" y2="1450.06"/><line class="cls-13" x1="1266.19" y1="1452.09" x2="1346.08" y2="1516.63"/></g><g id="HAND"><path class="cls-15" d="M1747.15,917.15a4.44,4.44,0,0,1,.6,6.84l-10.61,10.37a22.54,22.54,0,0,1-26.82,3.52l-17.5-9.87a13.84,13.84,0,0,0-14.29.43l-10.68,6.92c-7.33-30.72,14.64-39,16.43-39.65l.11,0,8.37-2.67a27.89,27.89,0,0,1,24.21,3.54Z"/><line class="cls-16" x1="1727.22" y1="916.2" x2="1741.58" y2="925.49"/><line class="cls-16" x1="1719.55" y1="923.87" x2="1733.91" y2="933.16"/></g><g id="HEAD-3" data-name="HEAD"><path class="cls-15" d="M1502.16,937.66l-60.21,18a20.7,20.7,0,0,1-22.51-7.42l-16.86-22.47a47.31,47.31,0,0,1,20.19-72.28l37.57-15.12a32.35,32.35,0,0,1,40.46,14.48l9.62,17.56,11.55,3.74a3.7,3.7,0,0,1,2.39,4.66l-3.47,10.74.58,1A32.72,32.72,0,0,1,1502.16,937.66Z"/><path class="cls-7" d="M1446.39,921.77a18.59,18.59,0,0,0-20.08-2.19l-.37.19a18.94,18.94,0,0,0-9.94,21.29l-1.5.62-11.92-15.89a47.31,47.31,0,0,1,20.19-72.28l37.57-15.12a32.18,32.18,0,0,1,16-2.1C1483.47,866,1471.8,898.89,1446.39,921.77Z"/><path class="cls-16" d="M1427.92,931s12-3.83,16.28,6.46"/><line class="cls-16" x1="1433.03" y1="938.61" x2="1436.06" y2="930.57"/><circle class="cls-7" cx="1500.7" cy="881.29" r="4.33"/></g></g><g id="MAN"><g id="BODY-3" data-name="BODY"><path class="cls-9" d="M943.61,1185.05c-5.22-5-13.7-17.44-18.93-23.34a467.89,467.89,0,0,1-71.49-138.62C787.62,819.58,867,611.9,1030.53,559.22a253.61,253.61,0,0,1,73.85-12.2c38.95-.65,78,7.47,115.22,23.15a342.93,342.93,0,0,1,60.83,33.42,199.66,199.66,0,0,1,84.38,136.92h0c28.07,120.55,35.72,236.49-96.18,375.77Z"/><polygon class="cls-17" points="1193.12 645.43 1186.48 718.53 1127.25 682.28 1068.98 715.14 1064.78 645.43 1193.12 645.43"/><circle class="cls-14" cx="1129.07" cy="716.09" r="6.47"/><circle class="cls-11" cx="1129.07" cy="761.4" r="6.47"/></g><g id="HEAD-4" data-name="HEAD"><path id="HEAD-5" data-name="HEAD" class="cls-15" d="M1216.75,623.68l-2.42,8.23a17.64,17.64,0,0,1-16.93,12.66h-4.49a48.4,48.4,0,0,1-47.75,40.51H1113a48.39,48.39,0,0,1-47.55-39.33h-4.7a17.63,17.63,0,0,1-16.92-12.66l-2.42-8.23a11.3,11.3,0,0,1,10.84-14.5h2.22a8.49,8.49,0,0,1,7.72,4.94c10-7.78,16.62-21.78,16.62-37.78a49.87,49.87,0,0,0-.33-5.86c23.4,13.51,58.36,22.39,81.29,21.12a78.52,78.52,0,0,0,19.67-3.27c2.45,11.17,8.26,20.55,15.95,26.27a8.11,8.11,0,0,1,8-6.6h2.56A11.31,11.31,0,0,1,1216.75,623.68Z"/><g id="FACE"><path class="cls-16" d="M1164.07,633.74a12.6,12.6,0,0,1-8,2.53c-3.72,0-7-1.3-8.71-3.23"/><path class="cls-16" d="M1108.84,633.74a12.6,12.6,0,0,1-8,2.53c-3.72,0-7-1.3-8.71-3.23"/><polyline class="cls-16" points="1119.88 619.41 1125.86 660.69 1137.8 660.69"/><path class="cls-7" d="M1120.3,622.07h-43l4-7.84a7.82,7.82,0,0,1,7-4.29H1112A10.68,10.68,0,0,1,1122.3,618l.29,1.13A2.36,2.36,0,0,1,1120.3,622.07Z"/><path class="cls-7" d="M1181.39,622.07h-42.72l3.68-7.84a7.23,7.23,0,0,1,6.48-4.29h22a10.09,10.09,0,0,1,9.62,8.06Z"/></g><path id="HAIR-2" data-name="HAIR" class="cls-7" d="M1204.21,542.52l-8.3,73.65c-8-5.68-14-15.23-16.49-26.66a78.52,78.52,0,0,1-19.67,3.27c-22.93,1.27-57.89-7.61-81.29-21.12a49.87,49.87,0,0,1,.33,5.86c0,16-6.66,30-16.65,37.81L1054,541.24v0c1-26.76,34.28-36.67,75.12-36.67C1170.57,504.54,1204.21,514.77,1204.21,542.52Z"/></g></g><g id="CHILD-2" data-name="CHILD"><g id="BODY-4" data-name="BODY"><path class="cls-17" d="M1104.65,1220.68c-44.23-3.15-83.94-50.74-98.67-153.69-13.85-96.76-19.47-182.4,40-199,29.25-8.18,59.08,2.86,85,27.4L1161.06,840l38.29,14.78-27.58,97a304.48,304.48,0,0,1,21.86,56.52c2.54,9.09,4.59,18.15,6.16,27.11a79.14,79.14,0,0,1,34.67,9.2c27.41,15,38.76,37.25,34.59,69.93a69.65,69.65,0,0,1,6.4,6.58c35.66,41.76,26.09,95.88-64.23,152.25-14.57,9.1-36.13,22.77-52.75,33.33l27.16,62.54a7.69,7.69,0,0,1-12.3,7.85l-78.82-63.68a34.75,34.75,0,0,1-8.74-43.58Z"/><line class="cls-18" x1="1118.42" y1="931.62" x2="1064.43" y2="932.46"/><path class="cls-18" d="M1039,1001.35l85-1.09a45.77,45.77,0,0,0,43.24-32.56l31.5-110.76"/><path class="cls-14" d="M1268.33,1116.28s9.93,66.71-97.92,170.26"/><line class="cls-14" x1="1104.65" y1="1220.68" x2="1157.58" y2="1150.62"/></g><g id="HAND-2" data-name="HAND"><path class="cls-15" d="M1158.31,844.6l-3.74-32.13a4,4,0,0,1,3.31-4.39h0a4,4,0,0,1,4.38,2.57l4.07,11.16a2.43,2.43,0,0,0,4.52.13l12.63-29.15a6,6,0,0,1,8-3.14l9.6,4.21a15.86,15.86,0,0,1,9,18.4l-10.71,42.5S1176,864,1158.31,844.6Z"/><line class="cls-19" x1="1191.97" y1="792.8" x2="1185.08" y2="810.77"/><line class="cls-19" x1="1199.74" y1="795.46" x2="1192.85" y2="813.47"/><line class="cls-19" x1="1205.77" y1="799.78" x2="1199.89" y2="815.12"/></g><g id="HEAD-6" data-name="HEAD"><g id="HAIR-3" data-name="HAIR"><path class="cls-12" d="M1042.3,891.58c-37.09,4.08-61-4.44-65.2-43a71.39,71.39,0,0,1,12.69-49.39,36.68,36.68,0,0,1-4.13.7,35.37,35.37,0,1,1,29-22,65,65,0,0,1,21.91-6.42c37.09-4.08,70.58,23.83,74.82,62.34S1079.37,887.5,1042.3,891.58Z"/><path class="cls-16" d="M985.43,809.54h0A12.84,12.84,0,0,1,975,794.65h0a12.84,12.84,0,0,1,14.89-10.4l12.65,2.25-2.25,12.65A12.84,12.84,0,0,1,985.43,809.54Z"/><path class="cls-16" d="M1029.25,775.31h0a12.85,12.85,0,0,0-11.61-14h0a12.84,12.84,0,0,0-14,11.61l-1.18,12.79,12.79,1.18A12.86,12.86,0,0,0,1029.25,775.31Z"/></g><g id="HEAD-7" data-name="HEAD"><path class="cls-15" d="M1104.57,904.42c-20.16,10.89-50,4.8-66.15-15.46l-5.25,4.59a15.37,15.37,0,0,1-22.13-2l-3.14-3.84a16.6,16.6,0,0,1,1.75-22.87,15.2,15.2,0,0,1,10.06-3.81,15.42,15.42,0,0,1,8.31,2.45,38.52,38.52,0,0,0,9.18.13c20.76-2.17,35.68-20.28,33.34-40.47a36,36,0,0,0-6.63-17,35.42,35.42,0,0,0,38.59,2.6c3.67,4.42,7,10.84,10.16,19.74C1124,860.15,1133.12,889,1104.57,904.42Z"/><path class="cls-20" d="M1027.72,880.92s-3.4-10.37-14.71-3"/><path class="cls-16" d="M1108.66,824.2c-13,1.76-18.5,16.78-16,35.45,1.25,9.27,5,17.32,10,22.86"/><path class="cls-16" d="M1073.57,867.23c-.4,4.19-5.32,7.15-11,6.62"/><path class="cls-16" d="M1110.87,846.52c-.36,3.76-4.78,6.42-9.87,5.93"/></g></g></g><g id="MAN_S_HAND" data-name="MAN&apos;S HAND"><path class="cls-15" d="M991.52,1230.18l19.09-32.77a42.66,42.66,0,0,1,68.34-7.31l68.24,74.63-4,2.58a23.89,23.89,0,0,1-25.4.45L1101,1257.61a4.41,4.41,0,0,0-6.08,6l39.16,66.23c3.53,6-3.86,12.35-9.25,8Z"/><path class="cls-7" d="M1040.65,1176.77l-19.87-41s-54,4-77.46,49.24l4.16,5.35a155.49,155.49,0,0,0,29.9,29.26l14.14,10.53Z"/><circle class="cls-21" cx="1009.03" cy="1168.48" r="6.47"/><path class="cls-11" d="M1270.58,799c9.45,50.1,4.67,95.64-28.76,134.14l-59.28,68.26"/><path class="cls-7" d="M1190.46,994.44l30.82-33s53.58-12.51,75.07,64.9l-48.87,27.93Z"/><path class="cls-15" d="M1248.87,1050.09c-2.66,9.76-8.69,18-16.08,24.92-27.18,25.4-61.79,51.27-79,61.49-4.21,2.49-8.34-3.56-4.7-6.84l25-25.46L1123.72,1126c-5.8,2.51-10.64-5-5.93-9.27l5.87-5.24-16.2,6c-7.3,2.69-13.11-6.5-7.53-11.94l8.18-8-7.31,2.69c-7.48,2.76-12.71-7.45-6.1-11.91l50.66-34.15.85-.58a2.84,2.84,0,0,0-1.52-5.14,3.06,3.06,0,0,0-.83.09l-23.34,5.87a14.5,14.5,0,0,1-12.47-2.65l-2.94-2.31,67-46.55c10.12-7.68,16.57-12.33,30.11-11,28.71,2.91,49.6,29,46.64,58.17Z"/><line class="cls-13" x1="1108.11" y1="1097.52" x2="1152.12" y2="1072.53"/><line class="cls-13" x1="1123.66" y1="1111.43" x2="1163.33" y2="1089.28"/><circle class="cls-21" cx="1225.31" cy="980.39" r="6.47"/></g><g id="WOMAN_S_HANDS" data-name="WOMAN&apos;S HANDS"><path class="cls-12" d="M1563.28,1102.08h0L1513.62,1125l-27-72.15,41.28-26.75c7.64-4.95,24.15,9.34,33.91,30.46S1571.55,1098.25,1563.28,1102.08Z"/><path class="cls-15" d="M1486.58,1052.84h-59a7.26,7.26,0,0,0-7.25,6.93h0a7.26,7.26,0,0,0,5.57,7.39l21.07,5a4.44,4.44,0,0,1,1.2,8.16l-50.13,29a11,11,0,0,0-4,15.08l9.64,16.49a28.9,28.9,0,0,0,35.21,12.44l74.67-28.35S1525.37,1080.85,1486.58,1052.84Z"/><line class="cls-16" x1="1400.23" y1="1127.48" x2="1431.31" y2="1111.22"/><line class="cls-16" x1="1406.37" y1="1138.22" x2="1437.5" y2="1121.93"/><line class="cls-16" x1="1415.45" y1="1148.22" x2="1441.97" y2="1134.34"/><path class="cls-15" d="M1270.6,646.69l-35.51-26.31a8,8,0,0,1-1.33-11.53l13.32-15.72a19.25,19.25,0,0,1,19.75-3.38l45.31,18a19.8,19.8,0,0,1,12.46,19.62L1323.52,645l-3.4-5.68a14.27,14.27,0,0,0-21.61-3.44L1288,645.07A15,15,0,0,1,1270.6,646.69Z"/><line class="cls-13" x1="1240.78" y1="621.93" x2="1260.6" y2="598.79"/><line class="cls-13" x1="1254.02" y1="631.18" x2="1273.84" y2="608.04"/><line class="cls-13" x1="1266.86" y1="640.34" x2="1286.68" y2="617.2"/></g></svg>